<svg xmlns="http://www.w3.org/2000/svg" aria-hidden="true" style="position:absolute;width:0;height:0;overflow:hidden"><defs><symbol id="cart" viewBox="0 0 24 32"><path stroke-miterlimit="20" stroke-width="2.667" d="M4.691 9.867a7.508 7.508 0 0 1 7.511-7.511 7.508 7.508 0 0 1 7.511 7.511M22.045 30.635H2.358V10.948h19.687v19.687z"/></symbol><symbol id="magnifier" viewBox="0 0 32 32"><path d="m31.008 27.231-7.58-6.447c-.784-.705-1.622-1.029-2.299-.998a11.954 11.954 0 0 0 2.87-7.787c0-6.627-5.373-12-12-12s-12 5.373-12 12 5.373 12 12 12c2.972 0 5.691-1.081 7.787-2.87-.031.677.293 1.515.998 2.299l6.447 7.58c1.104 1.226 2.907 1.33 4.007.23s.997-2.903-.23-4.007zM12 20a8 8 0 1 1 0-16 8 8 0 0 1 0 16z"/></symbol><symbol id="instagram" viewBox="0 0 34 32"><path d="M29.152 22.608c0 2-.581 3.611-1.741 4.707-1.163 1.098-2.774 1.68-4.71 1.68H9.539c-1.936 0-3.549-.582-4.71-1.68-1.16-1.16-1.744-2.773-1.744-4.773V9.315c0-1.936 5.222-8.192 6.382-9.354C3.859-.036.12 3.705.12 9.315v13.226c0 2.774.902 5.163 2.709 6.904 1.742 1.677 4.064 2.517 6.71 2.517h13.162c2.773 0 5.096-.904 6.773-2.517 1.742-1.677 2.647-4.064 2.647-6.838V9.316c0-2.709-.904-5.032-2.581-6.709C27.863.865 25.473-.038 22.766-.038H9.473L4.83 4.608C5.928 3.51 7.604 2.93 9.54 2.93h13.29c1.936 0 3.549.581 4.71 1.744 1.098 1.16 1.741 2.773 1.741 4.643v13.291h-.128zM24.571 9.509c.25.007.499-.036.732-.126s.446-.227.625-.402a1.872 1.872 0 0 0 .42-2.069 1.872 1.872 0 0 0-3.064-.574 1.871 1.871 0 0 0 0 2.606 1.87 1.87 0 0 0 1.287.566zM16.12 21.253a5.316 5.316 0 0 1-5.292-5.291c.006-1.401.566-2.744 1.557-3.734s2.333-1.55 3.735-1.557c1.401.006 2.744.566 3.734 1.557s1.55 2.333 1.557 3.734a5.318 5.318 0 0 1-5.291 5.289v.002zm0-13.549c-4.515 0-8.258 3.677-8.258 8.258a8.24 8.24 0 0 0 5.094 7.635 8.27 8.27 0 0 0 3.164.623c4.581 0 8.256-3.742 8.256-8.256 0-4.518-3.741-8.259-8.256-8.259z"/></symbol><symbol id="menu" viewBox="0 0 32 32"><path d="M6.4 11.733V9.6h19.2v2.133H6.4zm0 5.334h19.2v-2.133H6.4v2.133zm0 5.333h19.2v-2.133H6.4V22.4z"/></symbol><symbol id="cross" viewBox="0 0 32 32"><path d="M23.733 10.304 22.229 8.8l-5.963 5.963L10.303 8.8l-1.504 1.504 5.963 5.963-5.963 5.963 1.504 1.504 5.963-5.963 5.963 5.963 1.504-1.504-5.963-5.963 5.963-5.963z"/></symbol><symbol id="twitter" viewBox="0 0 32 32"><path  d="M32 3.787a11.11 11.11 0 0 1-3.768 1.269c1.356-1 2.393-2.584 2.887-4.468-1.269.923-2.675 1.6-4.168 1.961C25.751.98 24.045.003 22.158.003c-3.624 0-6.561 3.615-6.561 8.075 0 .631.056 1.246.168 1.838C10.31 9.578 5.473 6.363 2.236 1.471a9.55 9.55 0 0 0-.887 4.061c0 2.799 1.156 5.276 2.918 6.722-1.075-.039-2.087-.408-2.974-1.008v.1c0 3.915 2.262 7.183 5.268 7.921a5.416 5.416 0 0 1-1.731.285c-.425 0-.831-.054-1.237-.146.837 3.207 3.262 5.545 6.13 5.614-2.249 2.169-5.074 3.461-8.155 3.461-.531 0-1.05-.039-1.568-.115 2.912 2.3 6.361 3.63 10.067 3.63 12.073 0 18.678-12.313 18.678-22.988 0-.354-.006-.7-.019-1.046 1.281-1.13 2.393-2.553 3.274-4.176z" style=""/></symbol><symbol id="facebook" viewBox="0 0 23 32"><path d="M15.179 32V17.404h6.893l1.034-5.69h-7.925V8.081c0-1.645.639-2.767 3.965-2.767h4.238V.222C22.651.154 20.136 0 17.208 0 11.094 0 6.911 2.65 6.911 7.518v4.198H0v5.688h6.911V32h8.268z" style=""/></symbol></defs></svg>